<mxfile host="app.diagrams.net" agent="Mozilla/5.0 (X11; Linux x86_64; rv:128.0) Gecko/20100101 Firefox/128.0" version="24.8.3">
  <diagram name="Page-1" id="t5guZSjl_nIj54DiAsb2">
    <mxGraphModel dx="1434" dy="755" grid="1" gridSize="10" guides="1" tooltips="1" connect="1" arrows="1" fold="1" page="1" pageScale="1" pageWidth="850" pageHeight="1100" math="0" shadow="0">
      <root>
        <mxCell id="0" />
        <mxCell id="1" parent="0" />
        <mxCell id="FxIIOBWC-tFlPZ6GfEzu-6" value="client" style="ellipse;whiteSpace=wrap;html=1;" vertex="1" parent="1">
          <mxGeometry x="410" y="160" width="120" height="80" as="geometry" />
        </mxCell>
        <mxCell id="FxIIOBWC-tFlPZ6GfEzu-15" style="edgeStyle=orthogonalEdgeStyle;rounded=0;orthogonalLoop=1;jettySize=auto;html=1;exitX=0;exitY=0.5;exitDx=0;exitDy=0;" edge="1" parent="1" source="FxIIOBWC-tFlPZ6GfEzu-8" target="FxIIOBWC-tFlPZ6GfEzu-13">
          <mxGeometry relative="1" as="geometry" />
        </mxCell>
        <mxCell id="FxIIOBWC-tFlPZ6GfEzu-16" style="edgeStyle=orthogonalEdgeStyle;rounded=0;orthogonalLoop=1;jettySize=auto;html=1;exitX=0;exitY=0.5;exitDx=0;exitDy=0;entryX=1;entryY=0.5;entryDx=0;entryDy=0;" edge="1" parent="1" source="FxIIOBWC-tFlPZ6GfEzu-8" target="FxIIOBWC-tFlPZ6GfEzu-14">
          <mxGeometry relative="1" as="geometry" />
        </mxCell>
        <mxCell id="FxIIOBWC-tFlPZ6GfEzu-8" value="&lt;div align=&quot;left&quot;&gt;device&lt;/div&gt;" style="rounded=1;whiteSpace=wrap;html=1;align=left;" vertex="1" parent="1">
          <mxGeometry x="315" y="540" width="310" height="170" as="geometry" />
        </mxCell>
        <mxCell id="FxIIOBWC-tFlPZ6GfEzu-3" value="&lt;div align=&quot;left&quot;&gt;jar&lt;/div&gt;" style="rounded=0;whiteSpace=wrap;html=1;align=left;" vertex="1" parent="1">
          <mxGeometry x="390" y="570" width="210" height="120" as="geometry" />
        </mxCell>
        <mxCell id="FxIIOBWC-tFlPZ6GfEzu-5" value="emdedded server" style="rounded=1;whiteSpace=wrap;html=1;" vertex="1" parent="1">
          <mxGeometry x="450" y="600" width="120" height="60" as="geometry" />
        </mxCell>
        <mxCell id="FxIIOBWC-tFlPZ6GfEzu-9" value="" style="endArrow=classic;startArrow=classic;html=1;rounded=0;entryX=0.5;entryY=1;entryDx=0;entryDy=0;" edge="1" parent="1" target="FxIIOBWC-tFlPZ6GfEzu-6">
          <mxGeometry width="50" height="50" relative="1" as="geometry">
            <mxPoint x="470" y="600" as="sourcePoint" />
            <mxPoint x="460" y="490" as="targetPoint" />
          </mxGeometry>
        </mxCell>
        <mxCell id="FxIIOBWC-tFlPZ6GfEzu-18" value="&lt;div style=&quot;font-size: 12px;&quot;&gt;&lt;font style=&quot;font-size: 18px;&quot;&gt;socket&lt;/font&gt;&lt;/div&gt;" style="edgeLabel;html=1;align=center;verticalAlign=middle;resizable=0;points=[];" vertex="1" connectable="0" parent="FxIIOBWC-tFlPZ6GfEzu-9">
          <mxGeometry x="0.5121" y="-1" relative="1" as="geometry">
            <mxPoint as="offset" />
          </mxGeometry>
        </mxCell>
        <mxCell id="FxIIOBWC-tFlPZ6GfEzu-12" value="ngrok" style="ellipse;shape=cloud;whiteSpace=wrap;html=1;" vertex="1" parent="1">
          <mxGeometry x="410" y="350" width="120" height="80" as="geometry" />
        </mxCell>
        <mxCell id="FxIIOBWC-tFlPZ6GfEzu-13" value="camera" style="ellipse;whiteSpace=wrap;html=1;aspect=fixed;" vertex="1" parent="1">
          <mxGeometry x="110" y="520" width="80" height="80" as="geometry" />
        </mxCell>
        <mxCell id="FxIIOBWC-tFlPZ6GfEzu-14" value="microphone" style="ellipse;whiteSpace=wrap;html=1;aspect=fixed;" vertex="1" parent="1">
          <mxGeometry x="110" y="660" width="80" height="80" as="geometry" />
        </mxCell>
        <mxCell id="FxIIOBWC-tFlPZ6GfEzu-17" value="&lt;font style=&quot;font-size: 20px;&quot;&gt;v1.0.0 PERSONAL DEMO &lt;/font&gt;" style="text;html=1;align=center;verticalAlign=middle;resizable=0;points=[];autosize=1;strokeColor=none;fillColor=none;" vertex="1" parent="1">
          <mxGeometry x="40" y="40" width="260" height="40" as="geometry" />
        </mxCell>
      </root>
    </mxGraphModel>
  </diagram>
</mxfile>
